HIERARCHY
ROOT Hips
{
	OFFSET 0.000000 0.000000 0.000000
	CHANNELS 6 Xposition Yposition Zposition Zrotation Yrotation Xrotation 
	JOINT LHipJoint
	{
		OFFSET 0.000000 0.000000 0.000000
		CHANNELS 3 Zrotation Yrotation Xrotation
		JOINT LeftUpLeg
		{
			OFFSET 1.363060 -1.794630 0.839290
			CHANNELS 3 Zrotation Yrotation Xrotation
			JOINT LeftLeg
			{
				OFFSET 2.448110 -6.726130 0.000000
				CHANNELS 3 Zrotation Yrotation Xrotation
				JOINT LeftFoot
				{
					OFFSET 2.562200 -7.039590 0.000000
					CHANNELS 3 Zrotation Yrotation Xrotation
					JOINT LeftToeBase
					{
						OFFSET 0.157640 -0.433110 2.322550
						CHANNELS 3 Zrotation Yrotation Xrotation
						End Site
						{
							OFFSET 0.000000 0.000000 0.000000
						}
					}
				}
			}
		}
	}
	JOINT RHipJoint
	{
		OFFSET 0.000000 0.000000 0.000000
		CHANNELS 3 Zrotation Yrotation Xrotation
		JOINT RightUpLeg
		{
			OFFSET -1.305520 -1.794630 0.839290
			CHANNELS 3 Zrotation Yrotation Xrotation
			JOINT RightLeg
			{
				OFFSET -2.542530 -6.985550 0.000000
				CHANNELS 3 Zrotation Yrotation Xrotation
				JOINT RightFoot
				{
					OFFSET -2.568260 -7.056230 0.000000
					CHANNELS 3 Zrotation Yrotation Xrotation
					JOINT RightToeBase
					{
						OFFSET -0.164730 -0.452590 2.363150
						CHANNELS 3 Zrotation Yrotation Xrotation
						End Site
						{
							OFFSET 0.000000 0.000000 0.000000
						}
					}
				}
			}
		}
	}
	JOINT LowerBack
	{
		OFFSET 0.000000 0.000000 0.000000
		CHANNELS 3 Zrotation Yrotation Xrotation
		JOINT Spine
		{
			OFFSET 0.028270 2.035590 -0.193380
			CHANNELS 3 Zrotation Yrotation Xrotation
			JOINT Spine1
			{
				OFFSET 0.056720 2.048850 -0.042750
				CHANNELS 3 Zrotation Yrotation Xrotation
				JOINT Neck
				{
					OFFSET 0.000000 0.000000 0.000000
					CHANNELS 3 Zrotation Yrotation Xrotation
					JOINT Neck1
					{
						OFFSET -0.054170 1.746240 0.172020
						CHANNELS 3 Zrotation Yrotation Xrotation
						JOINT Head
						{
							OFFSET 0.104070 1.761360 -0.123970
							CHANNELS 3 Zrotation Yrotation Xrotation
							End Site
							{
								OFFSET 0.000000 0.000000 0.000000
							}
						}
					}
				}
				JOINT LeftShoulder
				{
					OFFSET 0.000000 0.000000 0.000000
					CHANNELS 3 Zrotation Yrotation Xrotation
					JOINT LeftArm
					{
						OFFSET 3.362410 1.200890 -0.311210
						CHANNELS 3 Zrotation Yrotation Xrotation
						JOINT LeftForeArm
						{
							OFFSET 4.983000 -0.000000 -0.000000
							CHANNELS 3 Zrotation Yrotation Xrotation
							JOINT LeftHand
							{
								OFFSET 3.483560 -0.000000 -0.000000
								CHANNELS 3 Zrotation Yrotation Xrotation
								JOINT LeftFingerBase
								{
									OFFSET 0.000000 0.000000 0.000000
									CHANNELS 3 Zrotation Yrotation Xrotation
									JOINT LeftHandIndex1
									{
										OFFSET 0.715260 -0.000000 -0.000000
										CHANNELS 3 Zrotation Yrotation Xrotation
										End Site
										{
											OFFSET 0.000000 0.000000 0.000000
										}
									}
								}
								JOINT LThumb
								{
									OFFSET 0.000000 0.000000 0.000000
									CHANNELS 3 Zrotation Yrotation Xrotation
									End Site
									{
										OFFSET 0.000000 0.000000 0.000000
									}
								}
							}
						}
					}
				}
				JOINT RightShoulder
				{
					OFFSET 0.000000 0.000000 0.000000
					CHANNELS 3 Zrotation Yrotation Xrotation
					JOINT RightArm
					{
						OFFSET -3.136600 1.374050 -0.404650
						CHANNELS 3 Zrotation Yrotation Xrotation
						JOINT RightForeArm
						{
							OFFSET -5.241900 -0.000000 -0.000000
							CHANNELS 3 Zrotation Yrotation Xrotation
							JOINT RightHand
							{
								OFFSET -3.444170 -0.000000 -0.000000
								CHANNELS 3 Zrotation Yrotation Xrotation
								JOINT RightFingerBase
								{
									OFFSET 0.000000 0.000000 0.000000
									CHANNELS 3 Zrotation Yrotation Xrotation
									JOINT RightHandIndex1
									{
										OFFSET -0.622530 -0.000000 -0.000000
										CHANNELS 3 Zrotation Yrotation Xrotation
										End Site
										{
											OFFSET 0.000000 0.000000 0.000000
										}
									}
								}
								JOINT RThumb
								{
									OFFSET 0.000000 0.000000 0.000000
									CHANNELS 3 Zrotation Yrotation Xrotation
									End Site
									{
										OFFSET 0.000000 0.000000 0.000000
									}
								}
							}
						}
					}
				}
			}
		}
	}
}
MOTION
Frames: 5
Frame Time: 0.008333
13.166524 10.854016 8.531624 0.919603 -59.389751 -30.292407 0.647906 -4.749446 -5.641629 9.092822 0.189933 -47.642559 19.117853 20.355497 84.668244 2.456890 -9.308245 20.459093 0.327100 -3.676000 -10.167000 -0.176510 3.765011 -4.009229 -2.284951 3.573040 -54.339520 -20.726920 -20.711263 90.177826 -1.494431 2.549049 22.021895 -0.043900 -1.351900 3.717700 -2.231945 3.529284 40.774021 0.225862 3.418710 0.043878 2.438159 1.323982 -0.649844 -10.710202 -16.312947 9.338114 9.553911 -23.873481 13.359444 6.736200 -12.861600 9.623300 -6.157849 3.819831 -1.385104 -77.742901 19.452411 47.261551 35.870179 -49.069099 -22.102677 1.727753 -4.191048 -29.466346 20.385978 41.722163 15.524100 -7.125000 0.000000 0.000000 -36.105500 75.832500 -26.886100 -0.427885 -1.919142 1.539059 93.674863 26.341281 23.102223 -31.964210 40.722535 -14.961254 -0.130340 -1.217359 9.927873 -22.576311 29.566967 -12.093800 7.125000 0.000000 0.000000 4.947300 2.840400 5.205500 
13.143855 10.835752 8.564391 1.132162 -59.459895 -30.557546 0.642787 -4.774303 -5.651773 8.759050 0.324236 -47.957547 19.390362 20.362585 85.438680 2.350658 -8.864840 19.679082 0.475700 -4.423300 -12.270700 -0.195345 3.736486 -4.006506 -2.654457 3.584100 -54.129783 -20.771979 -20.711415 90.589573 -1.840414 4.142223 23.122929 -0.032900 -1.170100 3.216900 -1.971068 3.580065 40.390622 0.196822 3.535711 0.078966 2.133862 1.403098 -0.253078 -10.511523 -16.562631 8.862675 9.460467 -24.218296 13.338930 6.562300 -12.973800 9.770100 -6.240006 3.847087 -1.323724 -77.122848 18.633005 48.629469 35.457415 -48.828767 -21.683245 1.665049 -4.313926 -29.579798 22.152817 42.596405 17.236400 -7.125000 0.000000 0.000000 -36.911500 77.231100 -28.528600 -0.378290 -1.980287 1.512795 93.188486 25.853457 23.816958 -31.968702 40.822376 -14.962203 -0.074967 -1.223965 10.057815 -23.794412 28.963486 -12.611800 7.125000 0.000000 0.000000 4.125700 2.490400 4.312100 
13.119038 10.820174 8.592538 1.279753 -59.494836 -30.743421 0.630463 -4.786764 -5.644385 8.371891 0.485534 -48.209737 19.592713 20.362685 85.995293 2.241299 -8.367971 18.830021 0.299300 -3.517700 -9.723600 -0.213875 3.711591 -4.000409 -2.809929 3.364158 -53.997968 -20.774055 -20.693170 90.991247 -2.207523 6.278338 23.708807 -0.015500 -0.803900 2.209400 -1.824501 3.633459 40.040534 0.190333 3.668977 0.080881 2.081915 1.478328 -0.115307 -10.585975 -16.710359 8.744166 9.465048 -24.424259 13.223728 6.551600 -13.064100 9.813600 -6.283595 3.863785 -1.275428 -76.643752 18.181103 50.164962 35.036773 -48.599559 -21.240375 1.599282 -4.443012 -29.266386 23.751629 43.940169 18.969700 -7.125000 0.000000 0.000000 -40.342000 78.850600 -32.555900 -0.359442 -2.007318 1.477219 92.841435 24.916376 24.424136 -32.453835 41.255054 -15.295463 -0.041519 -1.194920 10.085731 -24.058434 28.115680 -12.449100 7.125000 0.000000 0.000000 3.823900 1.634100 3.940000 
13.092824 10.799439 8.622083 1.290305 -59.426550 -30.861453 0.597658 -4.798914 -5.620273 7.949257 0.579688 -48.404337 19.707214 20.363282 86.326999 2.191132 -8.205012 17.469550 0.282200 -3.416300 -9.440000 -0.215080 3.692727 -3.981693 -2.982873 3.148308 -53.754924 -20.748428 -20.670555 91.249779 -2.479958 8.256982 23.573488 -0.022600 -0.970400 2.667300 -1.783539 3.593868 39.931115 0.199401 3.659736 0.037269 2.152658 1.482033 -0.320473 -10.764651 -16.662979 8.929782 9.523636 -24.346240 13.078795 6.662200 -13.051400 9.733900 -6.291111 3.859413 -1.255737 -76.338440 18.125553 51.542239 34.691840 -48.414021 -20.863770 1.550785 -4.572445 -28.777718 25.187844 45.877072 20.756200 -7.125000 0.000000 0.000000 -48.595700 80.607100 -41.126800 -0.385292 -1.977709 1.431388 92.774974 23.670809 25.052227 -33.304847 41.912976 -15.878482 -0.034954 -1.143495 10.163951 -23.557242 27.158353 -11.792600 7.125000 0.000000 0.000000 3.970800 0.470400 4.012800 
13.071230 10.781713 8.653024 1.342087 -59.394437 -30.926544 0.561385 -4.817947 -5.593832 7.473460 0.695972 -48.607918 19.682347 20.354705 86.417289 2.400147 -9.455279 15.871989 0.949400 -6.205300 -17.381200 -0.213724 3.680093 -3.965213 -3.218565 3.025755 -53.568948 -20.720676 -20.654265 91.315804 -2.608621 9.408110 22.937968 -0.101500 -2.054000 5.654800 -1.724737 3.555963 39.842079 0.201227 3.650504 -0.013268 2.196888 1.492295 -0.555360 -11.070018 -16.545881 9.102250 9.705684 -24.195479 12.860109 6.891500 -13.013000 9.687800 -6.307923 3.859289 -1.242109 -76.047229 18.149336 53.040150 34.430967 -48.274688 -20.559688 1.495547 -4.693952 -28.333046 26.682805 47.545480 22.557500 -7.125000 0.000000 0.000000 -58.554600 81.967100 -51.406100 -0.450092 -1.942945 1.392291 92.949299 22.446199 25.489983 -34.343328 42.675352 -16.611141 -0.047746 -1.100978 10.547566 -22.929208 26.550123 -11.209300 7.125000 0.000000 0.000000 4.260000 -0.340800 4.246400 
